<svg width="24" height="24" viewBox="0 0 24 24" fill="none" xmlns="http://www.w3.org/2000/svg">
<path d="M19.0714 3H4.92857C3.84375 3 3 3.88393 3 4.92857V19.0714C3 20.1562 3.84375 21 4.92857 21H10.433V14.8929H7.90179V12H10.433V9.83036C10.433 7.33929 11.9196 5.93304 14.1696 5.93304C15.2946 5.93304 16.4196 6.13393 16.4196 6.13393V8.58482H15.1741C13.9286 8.58482 13.5268 9.34821 13.5268 10.1518V12H16.2991L15.8571 14.8929H13.5268V21H19.0714C20.1161 21 21 20.1562 21 19.0714V4.92857C21 3.88393 20.1161 3 19.0714 3Z" fill="#1877F2"/>
</svg>
