<svg width="24" height="24" viewBox="0 0 24 24" fill="none" xmlns="http://www.w3.org/2000/svg">
<path d="M12 9.87054C10.7946 9.87054 9.83036 10.8348 9.83036 12C9.83036 13.2054 10.7946 14.1696 12 14.1696C13.1652 14.1696 14.1295 13.2054 14.1295 12C14.1295 10.8348 13.1652 9.87054 12 9.87054ZM16.9821 8.22321C16.7812 7.66071 16.3393 7.21875 15.7768 7.01786C14.933 6.65625 12.9241 6.73661 12 6.73661C11.0357 6.73661 9.02679 6.65625 8.18304 7.01786C7.62054 7.21875 7.17857 7.66071 6.97768 8.22321C6.65625 9.06696 6.69643 11.0759 6.69643 12C6.69643 12.9643 6.65625 14.9732 6.97768 15.817C7.17857 16.3795 7.62054 16.8214 8.18304 17.0223C9.02679 17.3839 11.0357 17.3036 12 17.3036C12.9241 17.3036 14.933 17.3839 15.7768 17.0223C16.3393 16.8214 16.7812 16.3795 16.9821 15.817C17.3438 14.9732 17.2634 12.9643 17.2634 12C17.2634 11.0759 17.3438 9.06696 16.9821 8.22321ZM12 15.2946C10.1518 15.2946 8.70536 13.8482 8.70536 12C8.70536 10.192 10.1518 8.70536 12 8.70536C13.808 8.70536 15.2946 10.192 15.2946 12V12.0402C15.2946 13.8482 13.808 15.3348 12 15.3348V15.2946ZM15.4152 9.34821C14.9732 9.34821 14.6518 9.02679 14.6518 8.58482C14.6518 8.14286 14.9732 7.82143 15.4152 7.82143C15.817 7.82143 16.1786 8.14286 16.1786 8.58482C16.1786 9.02679 15.817 9.34821 15.4152 9.34821ZM19.0714 3H4.92857C3.84375 3 3 3.88393 3 4.92857V19.0714C3 20.1562 3.84375 21 4.92857 21H19.0714C20.1161 21 21 20.1562 21 19.0714V4.92857C21 3.88393 20.1161 3 19.0714 3ZM18.3482 14.6518C18.308 15.6964 18.067 16.6205 17.3438 17.3438C16.5804 18.1071 15.6562 18.3482 14.6518 18.3884C13.567 18.4688 10.3929 18.4688 9.34821 18.3884C8.30357 18.3482 7.37946 18.1071 6.65625 17.3438C5.89286 16.6205 5.65179 15.6964 5.61161 14.6518C5.53125 13.6071 5.53125 10.433 5.61161 9.34821C5.65179 8.34375 5.89286 7.41964 6.65625 6.65625C7.37946 5.93304 8.30357 5.69196 9.34821 5.65179C10.3929 5.57143 13.567 5.57143 14.6518 5.65179C15.6562 5.69196 16.5804 5.93304 17.3438 6.69643C18.067 7.41964 18.308 8.34375 18.3482 9.38839C18.4286 10.433 18.4286 13.6071 18.3482 14.6518Z" fill="url(#paint0_linear_9742_29538)"/>
<defs>
<linearGradient id="paint0_linear_9742_29538" x1="24.5" y1="-4" x2="7.5" y2="23" gradientUnits="userSpaceOnUse">
<stop stop-color="#0041E3"/>
<stop offset="0.354167" stop-color="#DA29B0"/>
<stop offset="0.671875" stop-color="#FF443E"/>
<stop offset="1" stop-color="#FEC84A"/>
</linearGradient>
</defs>
</svg>
