<svg width="24" height="24" viewBox="0 0 24 24" fill="none" xmlns="http://www.w3.org/2000/svg">
<path d="M19.5 3H4.32711C3.26447 3 3 3.93085 3 4.35942V19.6854C3 20.614 3.78078 21 4.20935 21H19.5195C20.3555 21 21 20.6044 21 19.5195V4.5C21 4 21 3 19.5 3ZM17.1027 9.38839C17.1027 9.50893 17.1027 9.62946 17.1027 9.75C17.1027 13.2054 14.4509 17.2232 9.58929 17.2232C8.10268 17.2232 6.73661 16.8214 5.57143 16.058C5.77232 16.0982 5.97321 16.0982 6.17411 16.0982C7.41964 16.0982 8.54464 15.6562 9.46875 14.9732C8.30357 14.933 7.33929 14.1696 6.97768 13.125C7.41964 13.2054 7.78125 13.2054 8.18304 13.0848C6.97768 12.8438 6.09375 11.7991 6.09375 10.5134V10.4732C6.41518 10.6741 6.81696 10.7946 7.25893 10.7946C6.53571 10.3125 6.09375 9.50893 6.09375 8.625C6.09375 8.10268 6.21429 7.66071 6.45536 7.25893C7.74107 8.86607 9.70982 9.91071 11.8795 10.0312C11.5179 8.26339 12.8438 6.77679 14.4509 6.77679C15.2143 6.77679 15.8973 7.09821 16.3795 7.62054C16.9821 7.5 17.5446 7.29911 18.067 6.97768C17.8661 7.62054 17.4241 8.10268 16.9018 8.42411C17.4241 8.38393 17.9464 8.22321 18.4286 8.02232C18.067 8.54464 17.5848 9.02679 17.1027 9.38839Z" fill="#00ACEE"/>
</svg>
